<svg width="518" height="222" viewBox="0 0 518 222" fill="none" xmlns="http://www.w3.org/2000/svg">
<g clip-path="url(#clip0)">
<path d="M113.698 123.849C113.702 123.167 113.567 122.492 113.299 121.866C113.031 121.239 112.637 120.675 112.142 120.207C111.646 119.74 111.06 119.38 110.419 119.149C109.778 118.919 109.096 118.823 108.417 118.868C107.737 118.913 107.074 119.097 106.469 119.41C105.864 119.723 105.33 120.157 104.9 120.686C104.471 121.214 104.154 121.826 103.971 122.482C103.788 123.138 103.743 123.825 103.837 124.5L89.6027 143.151C88.9952 144.366 88.7597 145.734 88.9257 147.083C89.0916 148.431 89.6515 149.701 90.5354 150.733L91.652 152.036L96.7752 151.011L102.582 145.885L101.899 140.075L109.071 128.798L109.062 128.789C110.317 128.709 111.495 128.154 112.357 127.236C113.218 126.319 113.697 125.107 113.698 123.849Z" fill="#FFB9B9"/>
<path d="M15.2638 215.028L12.9403 206.394L45.1193 193.319L48.5485 206.062L15.2638 215.028Z" fill="#FFB8B8"/>
<path d="M7.49148 219.484L0 191.644L0.351932 191.549C3.22421 190.775 6.286 191.175 8.86386 192.66C11.4417 194.145 13.3245 196.593 14.0981 199.467L14.0983 199.468L18.6737 216.472L7.49148 219.484Z" fill="#2F2E41"/>
<path d="M59.589 213.649L52.3617 208.39L69.1956 177.995L79.8627 185.756L59.589 213.649Z" fill="#FFB8B8"/>
<path d="M56.3376 222L33.033 205.043L33.2473 204.748C34.9969 202.341 37.6303 200.728 40.5685 200.264C43.5066 199.799 46.5087 200.522 48.9145 202.272L48.9151 202.272L63.1487 212.629L56.3376 222Z" fill="#2F2E41"/>
<path d="M121.026 171.174L102.838 153.496C101.251 151.953 99.1602 151.036 96.9507 150.912C94.7411 150.789 92.5614 151.468 90.8122 152.824L56.4716 190.995L59.5457 195.779L92.3348 173.566L114.536 202.614L135.712 192.02L121.026 171.174Z" fill="#2F2E41"/>
<path d="M113.17 174.933L99.8492 173.908L90.2024 171.568C89.6575 170.717 88.8659 170.053 87.9336 169.665C87.0013 169.277 85.9728 169.184 84.9858 169.397C83.9988 169.61 83.1003 170.119 82.4108 170.857C81.7212 171.595 81.2734 172.526 81.1274 173.526C80.9813 174.526 81.144 175.546 81.5936 176.451C82.0431 177.355 82.7582 178.101 83.643 178.588C84.5278 179.075 85.5401 179.279 86.5444 179.175C87.5486 179.07 88.497 178.661 89.2624 178.002L89.261 178.009L95.0675 180.401L120.001 188.944L123.075 186.552L113.17 174.933Z" fill="#FFB9B9"/>
<path d="M145.276 211.841L137.762 216.626H128.881L87.5532 201.247L27.098 212.183L25.3903 199.196L80.7224 174.933L129.223 190.995L145.276 211.841Z" fill="#2F2E41"/>
<path d="M129.223 128.798C136.58 128.798 142.544 122.83 142.544 115.47C142.544 108.109 136.58 102.142 129.223 102.142C121.866 102.142 115.902 108.109 115.902 115.47C115.902 122.83 121.866 128.798 129.223 128.798Z" fill="#FFB9B9"/>
<path d="M163.689 168.682C163.689 176.726 162.422 184.719 159.936 192.369L158.938 195.438L154.156 217.309L149.033 218.676L145.276 213.892L137.762 208.424L132.297 199.538L127.611 191.726L126.149 189.286L121.026 163.655L101.557 152.72L95.0674 151.694L96.4337 147.935L102.24 140.075L108.047 139.392L109.754 138.025L111.121 138.708L118.652 141.611L143.07 131.289L146.642 131.873L158.938 142.126C162.082 150.626 163.69 159.618 163.689 168.682Z" fill="#CCCCCC"/>
<path opacity="0.1" d="M159.963 165.706L146.984 174.249L127.611 191.726L126.149 189.286L122.05 168.782H123.075L133.663 149.303L159.963 165.706Z" fill="black"/>
<path d="M133.663 147.252L123.075 166.731L116.927 173.566L111.462 174.933L126.149 190.995L146.984 172.199L159.963 163.655L133.663 147.252Z" fill="#CCCCCC"/>
<path d="M118.862 105.56L117.419 106.115C117.2 105.967 117.012 105.777 116.866 105.556C116.721 105.335 116.62 105.087 116.57 104.827C116.52 104.567 116.522 104.3 116.575 104.041C116.628 103.781 116.732 103.535 116.88 103.316C116.888 103.304 116.896 103.293 116.904 103.282L114.237 103.157C115.949 100.875 118.126 98.9834 120.623 97.6066C123.121 96.2298 125.882 95.3993 128.724 95.1701C131.566 94.9408 134.425 95.3181 137.11 96.2769C139.796 97.2357 142.248 98.7542 144.303 100.732C144.424 100.313 145.748 101.128 146.288 101.953C146.47 101.272 147.711 104.564 148.15 106.89C148.353 106.116 149.135 107.366 148.45 108.566C148.884 108.503 149.08 109.613 148.744 110.232C149.219 110.009 149.139 111.334 148.624 112.22C149.301 112.16 148.566 126.115 138.404 125.098C137.697 121.846 137.896 122.048 137.063 117.866C136.675 117.454 136.251 117.079 135.827 116.705L133.534 114.679C130.868 112.325 128.443 109.419 124.891 108.538C122.45 107.934 120.907 107.797 122.237 105.045C121.035 105.547 119.913 106.293 118.7 106.759C118.716 106.375 118.886 105.944 118.862 105.56Z" fill="#2F2E41"/>
<path d="M135.883 119.4C137.204 119.4 138.274 118.329 138.274 117.007C138.274 115.686 137.204 114.615 135.883 114.615C134.563 114.615 133.492 115.686 133.492 117.007C133.492 118.329 134.563 119.4 135.883 119.4Z" fill="#FFB9B9"/>
<path d="M24.3876 60.5086L23.658 71.4705L34.6138 72.2005L35.3434 61.2387L24.3876 60.5086Z" fill="#E6E6E6"/>
<path d="M17.3189 66.3293L30.6224 67.2158L29.7364 80.5266L16.433 79.6401L17.3189 66.3293ZM30.0055 67.756L17.8588 66.9466L17.0499 79.0999L29.1965 79.9093L30.0055 67.756Z" fill="#CCCCCC"/>
<path d="M86.3008 28.0035L75.5657 30.3114L77.8723 41.0524L88.6074 38.7444L86.3008 28.0035Z" fill="#E6E6E6"/>
<path d="M78.7659 22.8009L81.5669 35.8436L68.5314 38.646L65.7305 25.6034L78.7659 22.8009ZM80.8783 35.3983L78.321 23.4899L66.419 26.0486L68.9764 37.9571L80.8783 35.3983Z" fill="#CCCCCC"/>
<path d="M75.0207 79.5855L67.007 87.0958L74.5133 95.1139L82.5269 87.6036L75.0207 79.5855Z" fill="#E6E6E6"/>
<path d="M83.1031 78.462L73.3722 87.5817L64.2576 77.8454L73.9885 68.7257L83.1031 78.462ZM73.399 86.7618L82.2838 78.4352L73.9617 69.5455L65.0769 77.8722L73.399 86.7618Z" fill="#CCCCCC"/>
<path d="M489.441 0H164.571C163.396 -1.33522e-06 162.234 0.231411 161.149 0.681026C160.064 1.13064 159.078 1.78965 158.248 2.62043C157.418 3.45121 156.759 4.43749 156.31 5.52295C155.86 6.60842 155.629 7.77181 155.629 8.94672V190.058C155.629 191.233 155.86 192.397 156.31 193.482C156.759 194.567 157.418 195.554 158.248 196.385C159.078 197.215 160.064 197.874 161.149 198.324C162.234 198.774 163.396 199.005 164.571 199.005H489.441C491.813 199.005 494.087 198.062 495.764 196.385C497.441 194.707 498.383 192.431 498.383 190.058V8.94672C498.383 6.5739 497.441 4.29827 495.764 2.62043C494.087 0.9426 491.813 1.34831e-06 489.441 0Z" fill="#3F3D56"/>
<path d="M486.395 15.8114H167.617V195.734H486.395V15.8114Z" fill="white"/>
<path d="M326.733 10.9044C328.539 10.9044 330.003 9.43976 330.003 7.63306C330.003 5.82637 328.539 4.36176 326.733 4.36176C324.928 4.36176 323.464 5.82637 323.464 7.63306C323.464 9.43976 324.928 10.9044 326.733 10.9044Z" fill="white"/>
<path d="M395.23 195.734H167.617V15.8116L395.23 195.734Z" fill="#F2F2F2"/>
<path d="M217.496 182.27C234.419 182.27 248.138 168.544 248.138 151.611C248.138 134.679 234.419 120.952 217.496 120.952C200.573 120.952 186.854 134.679 186.854 151.611C186.854 168.544 200.573 182.27 217.496 182.27Z" fill="#7D9EB8"/>
<path d="M224.318 174.654C216.779 174.654 209.41 172.418 203.142 168.227C196.874 164.037 191.988 158.08 189.103 151.112C186.219 144.143 185.464 136.475 186.934 129.078C188.405 121.68 192.035 114.885 197.366 109.551C202.696 104.218 209.488 100.586 216.882 99.114C224.275 97.6425 231.939 98.3977 238.904 101.284C245.868 104.171 251.821 109.059 256.009 115.33C260.198 121.602 262.433 128.975 262.433 136.518C262.433 141.526 261.447 146.485 259.532 151.112C257.616 155.739 254.809 159.943 251.269 163.484C247.73 167.026 243.528 169.835 238.904 171.751C234.279 173.668 229.323 174.654 224.318 174.654ZM224.318 98.8797C216.878 98.8797 209.605 101.087 203.418 105.223C197.232 109.359 192.411 115.237 189.564 122.114C186.717 128.992 185.972 136.559 187.423 143.86C188.874 151.162 192.457 157.868 197.718 163.132C202.979 168.396 209.682 171.98 216.979 173.433C224.276 174.885 231.839 174.139 238.713 171.291C245.587 168.442 251.462 163.618 255.595 157.428C259.729 151.239 261.935 143.962 261.935 136.518C261.935 131.575 260.962 126.681 259.071 122.114C257.181 117.548 254.41 113.399 250.917 109.904C247.424 106.409 243.277 103.636 238.713 101.745C234.149 99.8533 229.257 98.8797 224.317 98.8797L224.318 98.8797Z" fill="#3F3D56"/>
<path d="M412.599 109.286H382.821V115.512H412.599V109.286Z" fill="#3F3D56"/>
<path d="M440.771 75.5589H354.649V78.227H440.771V75.5589Z" fill="#3F3D56"/>
<path d="M440.771 86.0414H354.649V88.7095H440.771V86.0414Z" fill="#3F3D56"/>
<path d="M440.771 96.5238H354.649V99.1919H440.771V96.5238Z" fill="#3F3D56"/>
<path d="M463.841 26.5789H451.397V39.0301H463.841V26.5789Z" fill="#7D9EB8"/>
<path d="M469.619 44.8109H454.508V29.6917H469.619V44.8109ZM455.165 44.1536H468.962V30.3491H455.165L455.165 44.1536Z" fill="#CCCCCC"/>
<path d="M507.333 192.462H476.223V190.22C476.223 190.161 476.211 190.103 476.189 190.049C476.167 189.995 476.134 189.946 476.093 189.905C476.051 189.864 476.002 189.831 475.949 189.809C475.895 189.786 475.837 189.775 475.778 189.775H465.112C465.054 189.775 464.996 189.786 464.942 189.809C464.888 189.831 464.839 189.864 464.798 189.905C464.756 189.946 464.724 189.995 464.701 190.049C464.679 190.103 464.667 190.161 464.667 190.22V192.462H458.001V190.22C458.001 190.161 457.989 190.103 457.967 190.049C457.945 189.995 457.912 189.946 457.871 189.905C457.83 189.864 457.781 189.831 457.727 189.809C457.673 189.786 457.615 189.775 457.557 189.775H446.89C446.832 189.775 446.774 189.786 446.72 189.809C446.666 189.831 446.617 189.864 446.576 189.905C446.534 189.946 446.502 189.995 446.479 190.049C446.457 190.103 446.446 190.161 446.446 190.22V192.462H439.779V190.22C439.779 190.161 439.768 190.103 439.745 190.049C439.723 189.995 439.69 189.946 439.649 189.905C439.608 189.864 439.559 189.831 439.505 189.809C439.451 189.786 439.393 189.775 439.335 189.775H428.668C428.61 189.775 428.552 189.786 428.498 189.809C428.444 189.831 428.395 189.864 428.354 189.905C428.313 189.946 428.28 189.995 428.257 190.049C428.235 190.103 428.224 190.161 428.224 190.22V192.462H421.557V190.22C421.557 190.161 421.546 190.103 421.523 190.049C421.501 189.995 421.468 189.946 421.427 189.905C421.386 189.864 421.337 189.831 421.283 189.809C421.229 189.786 421.171 189.775 421.113 189.775H410.446C410.388 189.775 410.33 189.786 410.276 189.809C410.222 189.831 410.173 189.864 410.132 189.905C410.091 189.946 410.058 189.995 410.036 190.049C410.013 190.103 410.002 190.161 410.002 190.22V192.462H403.335V190.22C403.335 190.161 403.324 190.103 403.301 190.049C403.279 189.995 403.246 189.946 403.205 189.905C403.164 189.864 403.115 189.831 403.061 189.809C403.007 189.786 402.949 189.775 402.891 189.775H392.224C392.166 189.775 392.108 189.786 392.054 189.809C392 189.831 391.951 189.864 391.91 189.905C391.869 189.946 391.836 189.995 391.814 190.049C391.791 190.103 391.78 190.161 391.78 190.22V192.462H385.113V190.22C385.113 190.161 385.102 190.103 385.079 190.049C385.057 189.995 385.024 189.946 384.983 189.905C384.942 189.864 384.893 189.831 384.839 189.809C384.785 189.786 384.727 189.775 384.669 189.775H374.002C373.944 189.775 373.886 189.786 373.832 189.809C373.778 189.831 373.729 189.864 373.688 189.905C373.647 189.946 373.614 189.995 373.592 190.049C373.569 190.103 373.558 190.161 373.558 190.22V192.462H366.891V190.22C366.891 190.161 366.88 190.103 366.857 190.049C366.835 189.995 366.802 189.946 366.761 189.905C366.72 189.864 366.671 189.831 366.617 189.809C366.563 189.786 366.505 189.775 366.447 189.775H282.893C282.834 189.775 282.776 189.786 282.723 189.809C282.669 189.831 282.62 189.864 282.578 189.905C282.537 189.946 282.504 189.995 282.482 190.049C282.46 190.103 282.448 190.161 282.448 190.22V192.462H275.782V190.22C275.782 190.161 275.77 190.103 275.748 190.049C275.725 189.995 275.693 189.946 275.651 189.905C275.61 189.864 275.561 189.831 275.507 189.809C275.453 189.786 275.396 189.775 275.337 189.775H264.671C264.612 189.775 264.555 189.786 264.501 189.809C264.447 189.831 264.398 189.864 264.356 189.905C264.315 189.946 264.282 189.995 264.26 190.049C264.238 190.103 264.226 190.161 264.226 190.22V192.462H257.56V190.22C257.56 190.161 257.548 190.103 257.526 190.049C257.504 189.995 257.471 189.946 257.43 189.905C257.388 189.864 257.339 189.831 257.285 189.809C257.231 189.786 257.174 189.775 257.115 189.775H246.449C246.39 189.775 246.333 189.786 246.279 189.809C246.225 189.831 246.176 189.864 246.134 189.905C246.093 189.946 246.06 189.995 246.038 190.049C246.016 190.103 246.004 190.161 246.004 190.22V192.462H239.338V190.22C239.338 190.161 239.326 190.103 239.304 190.049C239.282 189.995 239.249 189.946 239.208 189.905C239.166 189.864 239.117 189.831 239.063 189.809C239.009 189.786 238.952 189.775 238.893 189.775H228.227C228.168 189.775 228.111 189.786 228.057 189.809C228.003 189.831 227.954 189.864 227.913 189.905C227.871 189.946 227.839 189.995 227.816 190.049C227.794 190.103 227.782 190.161 227.782 190.22V192.462H221.116V190.22C221.116 190.161 221.104 190.103 221.082 190.049C221.06 189.995 221.027 189.946 220.986 189.905C220.944 189.864 220.895 189.831 220.841 189.809C220.788 189.786 220.73 189.775 220.671 189.775H210.005C209.947 189.775 209.889 189.786 209.835 189.809C209.781 189.831 209.732 189.864 209.691 189.905C209.649 189.946 209.617 189.995 209.594 190.049C209.572 190.103 209.56 190.161 209.56 190.22V192.462H202.894V190.22C202.894 190.161 202.882 190.103 202.86 190.049C202.838 189.995 202.805 189.946 202.764 189.905C202.722 189.864 202.673 189.831 202.62 189.809C202.566 189.786 202.508 189.775 202.449 189.775H191.783C191.665 189.775 191.552 189.822 191.469 189.905C191.385 189.989 191.339 190.102 191.339 190.22V192.462H184.672V190.22C184.672 190.161 184.66 190.103 184.638 190.049C184.616 189.995 184.583 189.946 184.542 189.905C184.501 189.864 184.452 189.831 184.398 189.809C184.344 189.786 184.286 189.775 184.228 189.775H173.561C173.443 189.775 173.33 189.822 173.247 189.905C173.163 189.989 173.117 190.102 173.117 190.22V192.462H152.672C149.843 192.462 147.13 193.587 145.13 195.588C143.13 197.59 142.006 200.304 142.006 203.135V207.96C142.006 210.791 143.13 213.506 145.13 215.507C147.13 217.508 149.844 218.633 152.672 218.633H507.333C510.162 218.633 512.875 217.508 514.876 215.507C516.876 213.506 518 210.791 518 207.96V203.135C518 201.733 517.724 200.345 517.188 199.051C516.652 197.756 515.866 196.579 514.876 195.588C513.885 194.597 512.71 193.811 511.415 193.275C510.121 192.738 508.734 192.462 507.333 192.462Z" fill="#3F3D56"/>
</g>
<defs>
<clipPath id="clip0">
<rect width="518" height="222" fill="white"/>
</clipPath>
</defs>
</svg>
